<svg id="Capa_1" data-name="Capa 1" xmlns="http://www.w3.org/2000/svg" xmlns:xlink="http://www.w3.org/1999/xlink" viewBox="0 0 395.8 395.8"><defs><style>.cls-1{fill:#fff;}.cls-2{fill:url(#Degradado_sin_nombre_3);}</style><radialGradient id="Degradado_sin_nombre_3" cx="11.69" cy="1.16" r="509.03" gradientUnits="userSpaceOnUse"><stop offset="0.1" stop-color="#00bcfd"/><stop offset="0.12" stop-color="#08b3fd"/><stop offset="0.23" stop-color="#2c85fe"/><stop offset="0.31" stop-color="#4369ff"/><stop offset="0.36" stop-color="#4b5fff"/><stop offset="0.69" stop-color="#811df0"/><stop offset="0.81" stop-color="#9604eb"/></radialGradient></defs><circle class="cls-1" cx="198.26" cy="195.93" r="197.5"/><path class="cls-2" d="M196.89,300.52H83.8c-8.06,0-11.64-3.65-11.64-11.76l0-182.51c0-1.24,0-2.48,0-3.72C72.3,95.91,75.88,92.24,82.56,92c3.92-.11,7.85,0,11.77,0L237.16,92q36.71,0,73.42,0c7.19,0,11.17,4,11.18,11.08V289.61c0,7.34-3.68,10.91-11.17,10.91ZM92.64,108.64c7.23,7.52,14.32,15.15,21.69,22.51q39.69,39.61,79.53,79.08c3,3,3.67,3,6.53.07q5-5.06,10.07-10.09L299.24,112c.95-.95,1.82-2,3.06-3.35Zm200,175.08c-24.39-23.79-48.22-47.05-72.72-70.94-2.78,3.07-5.47,5.78-7.86,8.73-7.05,8.68-20.72,10.3-29.81.06-2.59-2.91-5.31-5.71-8.16-8.75l-72.81,70.9ZM305,130.27l-.72-.52-71.09,72.94L305,272.57ZM89,272.4l71.59-69.7L89,130.15Z"/></svg>