<svg id="Capa_1" data-name="Capa 1" xmlns="http://www.w3.org/2000/svg" xmlns:xlink="http://www.w3.org/1999/xlink" viewBox="0 0 395.8 395.8"><defs><style>.cls-1{fill:#fff;}.cls-2{fill:url(#Degradado_sin_nombre_5);}</style><radialGradient id="Degradado_sin_nombre_5" cx="102.72" cy="84.16" r="386.95" gradientUnits="userSpaceOnUse"><stop offset="0.18" stop-color="#00bcfd"/><stop offset="0.2" stop-color="#08b3fd"/><stop offset="0.33" stop-color="#2c85fe"/><stop offset="0.43" stop-color="#4369ff"/><stop offset="0.49" stop-color="#4b5fff"/><stop offset="0.81" stop-color="#811df0"/><stop offset="0.92" stop-color="#9604eb"/></radialGradient></defs><circle class="cls-1" cx="198.26" cy="197.93" r="197.5"/><path class="cls-2" d="M229.6,317.54c0-16.87.09-33.74-.06-50.6,0-3,.69-3.79,3.71-3.75,13.55.17,27.1,0,40.65.11,2.34,0,3.42-.43,3.82-3.09,2.63-17.84,5.45-35.66,8.32-53.46.47-2.91-1.24-2.56-3-2.56-16.47,0-33-.11-49.42.08-3.39,0-4.13-.94-4.08-4.19.2-13.4-.52-26.85.34-40.2.59-9.12,6.22-18.9,18.11-23.25,5.68-2.08,11.63-2.46,17.61-2.48,6.64,0,13.29-.12,19.93,0,2.48.06,3.12-.7,3.1-3.14-.11-14.74-.14-29.48,0-44.22,0-2.52-1-3.17-3.09-3.44-22.66-3-45.29-6.12-68-.55a64.16,64.16,0,0,0-29.69,16.69c-16.65,15.95-21.75,36.14-22,58.16-.19,14.34-.12,28.69,0,43,0,2.8-.72,3.55-3.52,3.52-14.88-.14-29.76,0-44.63-.12-2.91,0-3.81.62-3.79,3.69q.25,25.89,0,51.79c0,3,.83,3.74,3.76,3.71,14.75-.15,29.49,0,44.24-.13,3.08,0,4,.72,4,3.9-.15,22.44-.08,44.89-.08,67.34h0V401c0,.78,0,1.41,0,1.95a204.16,204.16,0,0,0,63.83,0,9.37,9.37,0,0,1-.13-1.71C229.67,373.32,229.59,345.43,229.6,317.54Z"/><path class="cls-2" d="M202.74.5a112.63,112.63,0,0,0-18.26.31l-1.4.16q7.23-.52,14.6-.53C199.37.44,201.06.46,202.74.5Z"/></svg>