<?xml version="1.0" encoding="utf-8"?>
<!-- Generator: Adobe Illustrator 25.4.1, SVG Export Plug-In . SVG Version: 6.00 Build 0)  -->
<svg version="1.1" id="Capa_1" xmlns="http://www.w3.org/2000/svg" xmlns:xlink="http://www.w3.org/1999/xlink" x="0px" y="0px"
	 viewBox="0 0 206.6 206.3" style="enable-background:new 0 0 206.6 206.3;" xml:space="preserve">
<style type="text/css">
	.st0{fill:#FFFFFF;}
	.st1{fill:url(#SVGID_1_);}
	.st2{fill:url(#SVGID_00000134929448014410868620000010115831243229362591_);}
	.st3{fill:url(#SVGID_00000142868919215173823330000012186373734169015215_);}
	.st4{fill:url(#SVGID_00000016058421368316456850000015222071531363561612_);}
	.st5{fill:url(#SVGID_00000041286549416821429010000015338889418250019737_);}
	.st6{fill:url(#SVGID_00000013166933888284801170000002363984630791000968_);}
	.st7{fill:url(#SVGID_00000057127690324662314170000000855763787694774974_);}
	.st8{fill:url(#SVGID_00000085955650488402265700000008804784000279358132_);}
	.st9{fill:url(#SVGID_00000089541915249767674220000017346460862733283499_);}
</style>
<g>
	<path class="st0" d="M103.3,3c55.3,0,100.3,45,100.3,100.3s-45,100.3-100.3,100.3S3,158.6,3,103.3S48,3,103.3,3 M103.3,0
		C46.3,0,0,46.3,0,103.3s46.3,103.3,103.3,103.3s103.3-46.3,103.3-103.3S160.4,0,103.3,0L103.3,0z"/>
</g>
<circle class="st0" cx="103.3" cy="103.3" r="95.1"/>
<g>
	<radialGradient id="SVGID_1_" cx="40.1059" cy="58.4305" r="162.0869" gradientUnits="userSpaceOnUse">
		<stop  offset="9.854276e-02" style="stop-color:#00BCFD"/>
		<stop  offset="0.1189" style="stop-color:#08B3FD"/>
		<stop  offset="0.226" style="stop-color:#2C85FE"/>
		<stop  offset="0.3088" style="stop-color:#4369FF"/>
		<stop  offset="0.3567" style="stop-color:#4B5FFF"/>
		<stop  offset="0.6917" style="stop-color:#811DF0"/>
		<stop  offset="0.8119" style="stop-color:#9604EB"/>
	</radialGradient>
	<path class="st1" d="M83.7,158c-0.1-0.1-0.2-0.1-0.3-0.2c-1.2-0.5-1.9-1.6-1.7-2.8c0.2-1.2,1.2-2.1,2.5-2.1c2.3,0,4.6,0,6.9,0
		c0.2,0,0.4,0,0.7,0c0-0.2,0-0.4,0-0.6c0-2.2,0-4.3,0-6.5c0-0.5-0.1-0.6-0.6-0.6c-16.7,0-33.5,0-50.2,0c-4.4,0-7.7-3.4-7.7-7.7
		c0-24.5,0-49,0-73.4c0-4.5,3.3-7.8,7.8-7.8c40.6,0,81.2,0,121.8,0c4.4,0,7.7,3.4,7.7,7.7c0,4,0,8,0,12c0,0.2,0,0.3,0,0.6
		c-1.7,0-3.3,0-5.1,0c0-0.1,0-0.3,0-0.5c0-3.9-0.1-7.8,0-11.7c0-2.1-1.2-3.2-3.2-3.2c-40.1,0-80.1,0-120.2,0c-0.4,0-0.8,0-1.2,0
		c-1.6,0-2.6,1.1-2.6,2.7c0,0.4,0,0.8,0,1.2c0,19.6,0,39.2,0,58.8c0,0.3,0,0.6,0,0.9c0.5,0,0.9,0,1.3,0c34.2,0,68.4,0,102.5,0
		c0.5,0,0.7,0.1,0.8,0.6c0.6,1.7,1.6,3.1,3,4.5c-35.9,0-71.7,0-107.6,0c0,0.2,0,0.4,0,0.6c0,2.3,0,4.6,0,6.9c0,1.7,1,2.8,2.8,2.8
		c0.3,0,0.7,0,1,0c40.1,0,80.3,0,120.4,0c0.6,0,1.1-0.2,1.7-0.3c0.1,0,0.3-0.1,0.4,0c1.6,0.4,3.3,0.4,5,0.4c0.2,0,0.3,0,0.6,0
		c-0.4,1.2-1,2.1-1.9,2.9c-1.5,1.4-3.3,2.1-5.4,2.1c-16.6,0-33.3,0-49.9,0c-0.9,0-0.8-0.1-0.8,0.8c0,2.1,0,4.2,0,6.2
		c0,0.2,0,0.4,0,0.6c0.7,0,1.4,0,2.1,0c1.8,0,3.5,0,5.3,0c1.5,0,2.5,0.8,2.7,2c0.2,1.4-0.4,2.4-1.8,3c0,0-0.1,0.1-0.1,0.1
		C108.1,158,95.9,158,83.7,158z M96.9,152.9c3.4,0,6.8,0,10.2,0c0-2.6,0-5.1,0-7.6c-0.1,0-0.2,0-0.3,0c-3.2,0-6.3,0-9.5,0
		c-0.4,0-0.4,0.2-0.4,0.5c0,1.5,0,3.1,0,4.6C96.9,151.2,96.9,152,96.9,152.9z"/>
	
		<radialGradient id="SVGID_00000176037946755540791460000003496696770490180514_" cx="40.1059" cy="58.4305" r="162.0869" gradientUnits="userSpaceOnUse">
		<stop  offset="9.854276e-02" style="stop-color:#00BCFD"/>
		<stop  offset="0.1189" style="stop-color:#08B3FD"/>
		<stop  offset="0.226" style="stop-color:#2C85FE"/>
		<stop  offset="0.3088" style="stop-color:#4369FF"/>
		<stop  offset="0.3567" style="stop-color:#4B5FFF"/>
		<stop  offset="0.6917" style="stop-color:#811DF0"/>
		<stop  offset="0.8119" style="stop-color:#9604EB"/>
	</radialGradient>
	<path style="fill:url(#SVGID_00000176037946755540791460000003496696770490180514_);" d="M196.1,111.1c-0.1,0.2-0.1,0.3-0.2,0.5
		c-0.6,2.4-2.1,3.9-4.4,4.7c-0.3,0.1-0.5,0.3-0.7,0.6c-0.4,0.8-0.4,1.5,0,2.4c1,2.4,0.6,4.7-1.2,6.7c-0.9,1-1.8,1.9-2.8,2.8
		c-2,1.9-4.9,2.3-7.3,1c-0.4-0.2-0.6-0.2-1-0.1c-0.8,0.3-1.3,0.7-1.6,1.5c-0.9,2.4-3.2,4-5.8,4c-1.2,0-2.4,0-3.6,0
		c-2.8,0-5.2-1.7-6-4.4c-0.1-0.4-0.3-0.6-0.7-0.8c-0.7-0.4-1.4-0.3-2.2,0c-2.4,1-4.7,0.7-6.6-1c-1.1-0.9-2.1-1.9-3-3
		c-1.9-2.1-2.2-4.9-0.9-7.4c0.1-0.2,0.1-0.5,0-0.8c-0.2-0.9-0.8-1.4-1.7-1.7c-2.4-1-3.7-3-3.8-5.6c-0.1-1.3,0-2.6,0-3.9
		c0-2.7,1.9-5.1,4.5-5.9c0.4-0.1,0.6-0.3,0.8-0.7c0.4-0.8,0.3-1.4,0-2.2c-1.1-2.5-0.6-4.8,1.3-6.9c0.8-0.9,1.7-1.8,2.6-2.6
		c2.1-2,5-2.3,7.5-1c0.2,0.1,0.5,0.1,0.8,0.1c0.9-0.2,1.4-0.8,1.8-1.7c1-2.5,3-3.8,5.7-3.9c1.2,0,2.4,0,3.6,0c2.9,0,5.3,1.8,6.1,4.6
		c0.1,0.3,0.3,0.5,0.6,0.6c0.8,0.4,1.5,0.4,2.4,0c2.4-1,4.7-0.6,6.6,1.2c1,0.9,2,1.9,2.9,2.9c1.8,1.9,2.2,4.8,0.9,7.2
		c-0.2,0.4-0.2,0.6-0.1,1c0.3,0.8,0.7,1.3,1.6,1.6c2.1,0.8,3.3,2.3,3.8,4.5c0,0.2,0.1,0.3,0.1,0.5
		C196.1,107.5,196.1,109.3,196.1,111.1z M187.2,111.4c0.1,0,0.2,0,0.2,0c0.7,0,1.5,0,2.2,0c1,0,1.5-0.4,1.5-1.4c0-1.1,0-2.1,0-3.2
		c0-0.9-0.5-1.4-1.4-1.4c-0.7,0-1.4,0-2,0c-0.3,0-0.5-0.1-0.5-0.4c-0.4-2.4-1.4-4.6-2.8-6.7c-0.2-0.3-0.2-0.4,0.1-0.6
		c0.5-0.5,1-1,1.5-1.5c0.6-0.6,0.6-1.3,0-1.9c-0.8-0.8-1.6-1.6-2.3-2.3c-0.6-0.6-1.3-0.6-1.9,0c-0.5,0.5-1,1-1.5,1.5
		c-0.2,0.2-0.3,0.2-0.6,0.1c-2.1-1.4-4.3-2.3-6.8-2.8c-0.3-0.1-0.4-0.2-0.4-0.5c0-0.7,0-1.4,0-2.1c0-0.8-0.5-1.3-1.3-1.3
		c-1.1,0-2.3,0-3.4,0c-0.8,0-1.3,0.5-1.3,1.3c0,0.7,0,1.4,0,2.1c0,0.3-0.1,0.5-0.4,0.5c-2.4,0.5-4.6,1.4-6.7,2.8
		c-0.3,0.2-0.5,0.2-0.7-0.1c-0.4-0.5-0.9-0.9-1.4-1.4c-0.7-0.7-1.3-0.7-2,0c-0.7,0.7-1.4,1.4-2.2,2.2c-0.8,0.8-0.8,1.4,0,2.1
		c0.5,0.5,1.1,1.1,1.6,1.6c0,0.1,0,0.1,0,0.2c-1.5,2.1-2.4,4.4-3,7c0,0.1-0.3,0.3-0.4,0.3c-0.7,0-1.5,0-2.2,0
		c-0.8,0-1.3,0.5-1.3,1.3c0,1.2,0,2.3,0,3.5c0,0.8,0.5,1.3,1.3,1.3c0.7,0,1.4,0,2,0c0.4,0,0.5,0.1,0.6,0.5c0.4,2.3,1.3,4.3,2.5,6.3
		c0.1,0.2,0.3,0.5,0.5,0.7c-0.6,0.6-1.2,1.1-1.7,1.7c-0.7,0.7-0.7,1.3,0,2c0.7,0.7,1.5,1.5,2.2,2.2c0.8,0.8,1.4,0.8,2.1,0
		c0.5-0.6,1.1-1.1,1.5-1.6c1.3,0.7,2.5,1.4,3.7,1.9c1.2,0.5,2.5,0.8,3.9,1.3c0,0.8,0,1.6,0,2.5c0,0.8,0.5,1.3,1.2,1.3
		c1.2,0,2.4,0,3.6,0c0.7,0,1.2-0.5,1.2-1.2c0-0.4,0-0.9,0-1.3c0-0.4,0-0.9,0-1.3c3.2-0.8,3.2-0.8,7.5-3.1c0.6,0.6,1.1,1.2,1.7,1.7
		c0.6,0.6,1.3,0.6,1.9,0c0.7-0.7,1.5-1.5,2.2-2.2c0.8-0.8,0.8-1.4,0-2.2c-0.5-0.5-1.1-1.1-1.7-1.6
		C185.7,116.5,186.7,114.1,187.2,111.4z"/>
	
		<radialGradient id="SVGID_00000104705780429238006930000002009687214364582817_" cx="40.1059" cy="58.4305" r="162.0869" gradientUnits="userSpaceOnUse">
		<stop  offset="9.854276e-02" style="stop-color:#00BCFD"/>
		<stop  offset="0.1189" style="stop-color:#08B3FD"/>
		<stop  offset="0.226" style="stop-color:#2C85FE"/>
		<stop  offset="0.3088" style="stop-color:#4369FF"/>
		<stop  offset="0.3567" style="stop-color:#4B5FFF"/>
		<stop  offset="0.6917" style="stop-color:#811DF0"/>
		<stop  offset="0.8119" style="stop-color:#9604EB"/>
	</radialGradient>
	<path style="fill:url(#SVGID_00000104705780429238006930000002009687214364582817_);" d="M134.3,93.1c-1.1-0.7-2-1.4-3-2
		c-5.5-3.7-11-7.3-16.5-11c-1-0.6-1.5-1.5-1.3-2.6c0.1-1,0.7-1.7,1.7-2c0.9-0.3,1.7-0.1,2.4,0.4c2.7,1.8,5.4,3.6,8.1,5.4
		c4.8,3.2,9.7,6.4,14.5,9.7c1.7,1.1,1.7,3.3,0,4.4c-7.5,5-15.1,10-22.6,15c-0.7,0.5-1.5,0.7-2.4,0.4c-1-0.3-1.6-0.9-1.7-1.9
		c-0.2-1.1,0.2-1.9,1.1-2.6c0.8-0.6,1.6-1.1,2.5-1.6c5.6-3.7,11.2-7.5,16.8-11.2C134,93.3,134.1,93.2,134.3,93.1z"/>
	
		<radialGradient id="SVGID_00000018929001102503756200000009649311878958738610_" cx="40.1059" cy="58.4305" r="162.0869" gradientUnits="userSpaceOnUse">
		<stop  offset="9.854276e-02" style="stop-color:#00BCFD"/>
		<stop  offset="0.1189" style="stop-color:#08B3FD"/>
		<stop  offset="0.226" style="stop-color:#2C85FE"/>
		<stop  offset="0.3088" style="stop-color:#4369FF"/>
		<stop  offset="0.3567" style="stop-color:#4B5FFF"/>
		<stop  offset="0.6917" style="stop-color:#811DF0"/>
		<stop  offset="0.8119" style="stop-color:#9604EB"/>
	</radialGradient>
	<path style="fill:url(#SVGID_00000018929001102503756200000009649311878958738610_);" d="M69.7,93.1c1,0.6,1.8,1.2,2.7,1.8
		c5.5,3.7,11.1,7.4,16.6,11c0.6,0.4,1.1,0.8,1.4,1.5c0.4,1,0,2.2-0.8,2.8c-0.9,0.7-2.1,0.8-3,0.1c-1.8-1.2-3.5-2.3-5.3-3.5
		c-5.8-3.9-11.6-7.7-17.4-11.6c-1.2-0.8-1.6-1.9-1.2-3.1c0.2-0.6,0.6-1.1,1.1-1.4c6.1-4.1,12.2-8.1,18.3-12.2c1.5-1,2.9-1.9,4.4-2.9
		c1-0.7,2.2-0.7,3.1,0c0.9,0.6,1.2,1.8,0.9,2.8c-0.2,0.6-0.6,1.1-1.2,1.5c-3.3,2.2-6.6,4.4-9.9,6.6c-3.1,2-6.1,4.1-9.2,6.1
		C70,92.9,69.9,93,69.7,93.1z"/>
	
		<radialGradient id="SVGID_00000070086641281777069410000000614595782477528477_" cx="40.1059" cy="58.4305" r="162.0869" gradientUnits="userSpaceOnUse">
		<stop  offset="9.854276e-02" style="stop-color:#00BCFD"/>
		<stop  offset="0.1189" style="stop-color:#08B3FD"/>
		<stop  offset="0.226" style="stop-color:#2C85FE"/>
		<stop  offset="0.3088" style="stop-color:#4369FF"/>
		<stop  offset="0.3567" style="stop-color:#4B5FFF"/>
		<stop  offset="0.6917" style="stop-color:#811DF0"/>
		<stop  offset="0.8119" style="stop-color:#9604EB"/>
	</radialGradient>
	<path style="fill:url(#SVGID_00000070086641281777069410000000614595782477528477_);" d="M109.6,74.1c-0.1,0.4-0.1,0.7-0.2,1.1
		c-3.3,12.4-6.6,24.7-9.9,37.1c-0.1,0.5-0.3,0.9-0.5,1.4c-0.7,1.1-2,1.4-3.1,1c-1.1-0.5-1.8-1.7-1.5-2.9c0.7-2.5,1.3-5.1,2-7.6
		c2.7-10.1,5.4-20.1,8.1-30.2c0.2-0.9,0.6-1.6,1.5-2C107.7,71,109.6,72.2,109.6,74.1z"/>
	
		<radialGradient id="SVGID_00000155857974592182837730000012411339280667157666_" cx="40.1059" cy="58.4305" r="162.0869" gradientUnits="userSpaceOnUse">
		<stop  offset="9.854276e-02" style="stop-color:#00BCFD"/>
		<stop  offset="0.1189" style="stop-color:#08B3FD"/>
		<stop  offset="0.226" style="stop-color:#2C85FE"/>
		<stop  offset="0.3088" style="stop-color:#4369FF"/>
		<stop  offset="0.3567" style="stop-color:#4B5FFF"/>
		<stop  offset="0.6917" style="stop-color:#811DF0"/>
		<stop  offset="0.8119" style="stop-color:#9604EB"/>
	</radialGradient>
	<path style="fill:url(#SVGID_00000155857974592182837730000012411339280667157666_);" d="M102,137.6c-3.4,0-6.8,0-10.2,0
		c-1,0-1.8-0.5-2.3-1.4c-0.5-0.9-0.4-1.8,0.2-2.6c0.5-0.7,1.2-1,2-1c6.8,0,13.6,0,20.4,0c1.4,0,2.5,1.1,2.5,2.5
		c0,1.4-1.1,2.5-2.5,2.5c-2.8,0-5.6,0-8.4,0C103.2,137.6,102.6,137.6,102,137.6z"/>
	
		<radialGradient id="SVGID_00000020390093820272757190000017263088387162713218_" cx="40.1059" cy="58.4305" r="162.0869" gradientUnits="userSpaceOnUse">
		<stop  offset="9.854276e-02" style="stop-color:#00BCFD"/>
		<stop  offset="0.1189" style="stop-color:#08B3FD"/>
		<stop  offset="0.226" style="stop-color:#2C85FE"/>
		<stop  offset="0.3088" style="stop-color:#4369FF"/>
		<stop  offset="0.3567" style="stop-color:#4B5FFF"/>
		<stop  offset="0.6917" style="stop-color:#811DF0"/>
		<stop  offset="0.8119" style="stop-color:#9604EB"/>
	</radialGradient>
	<path style="fill:url(#SVGID_00000020390093820272757190000017263088387162713218_);" d="M52.1,134.3c0-1.2,0.9-2.1,2.1-2.2
		c1.2,0,2.1,0.9,2.1,2.1c0,1.2-0.9,2.1-2.1,2.2C53,136.4,52.1,135.5,52.1,134.3z"/>
	
		<radialGradient id="SVGID_00000002352560678281289140000003961980300877048209_" cx="40.1059" cy="58.4305" r="162.0869" gradientUnits="userSpaceOnUse">
		<stop  offset="9.854276e-02" style="stop-color:#00BCFD"/>
		<stop  offset="0.1189" style="stop-color:#08B3FD"/>
		<stop  offset="0.226" style="stop-color:#2C85FE"/>
		<stop  offset="0.3088" style="stop-color:#4369FF"/>
		<stop  offset="0.3567" style="stop-color:#4B5FFF"/>
		<stop  offset="0.6917" style="stop-color:#811DF0"/>
		<stop  offset="0.8119" style="stop-color:#9604EB"/>
	</radialGradient>
	<path style="fill:url(#SVGID_00000002352560678281289140000003961980300877048209_);" d="M43.5,134.3c0-1.2,1-2.1,2.2-2.1
		c1.2,0,2.1,1,2.1,2.1c0,1.2-1,2.1-2.1,2.1C44.4,136.4,43.5,135.5,43.5,134.3z"/>
	
		<radialGradient id="SVGID_00000126312444284798406470000003416199933137580947_" cx="40.1059" cy="58.4305" r="162.0869" gradientUnits="userSpaceOnUse">
		<stop  offset="9.854276e-02" style="stop-color:#00BCFD"/>
		<stop  offset="0.1189" style="stop-color:#08B3FD"/>
		<stop  offset="0.226" style="stop-color:#2C85FE"/>
		<stop  offset="0.3088" style="stop-color:#4369FF"/>
		<stop  offset="0.3567" style="stop-color:#4B5FFF"/>
		<stop  offset="0.6917" style="stop-color:#811DF0"/>
		<stop  offset="0.8119" style="stop-color:#9604EB"/>
	</radialGradient>
	<path style="fill:url(#SVGID_00000126312444284798406470000003416199933137580947_);" d="M169.4,118.5c-5.7,0-10.2-4.6-10.1-10.3
		c0-5.6,4.6-10.1,10.2-10c5.6,0,10.1,4.6,10.1,10.2C179.6,114,175,118.5,169.4,118.5z M169.4,113.5c2.8,0,5.1-2.3,5.1-5.1
		c0-2.8-2.3-5.1-5.1-5.1c-2.8,0-5.1,2.3-5.1,5.1C164.3,111.2,166.6,113.5,169.4,113.5z"/>
</g>
</svg>
