<svg id="Capa_1" data-name="Capa 1" xmlns="http://www.w3.org/2000/svg" viewBox="0 0 258.74 258.62"><defs><style>.cls-1{fill:#fff;}</style></defs><path class="cls-1" d="M0,258.46C3.68,245,7.15,232.37,10.58,219.73c2-7.21,4.15-14.39,5.69-21.69a13.58,13.58,0,0,0-.88-8.34C-2.29,155-4.81,119.21,9,82.9A128.52,128.52,0,0,1,136.81.21c35.93,2,66.12,16.88,89.79,44.09,27.06,31.09,37.29,67.48,29.72,107.75-9,47.73-37.28,80.84-82.5,98.15C140.1,263.11,106.23,261,73.53,245.25A17.21,17.21,0,0,0,61.12,244C41.12,249,21,253.53,0,258.46ZM64.08,102.69c.4,10.27,6,20.91,13,31.05,15.51,22.5,33.88,41.57,60.59,50.6,11,3.71,21.78,8.35,33.94,5.91,13.23-2.66,22.47-12.39,23.17-25.65.12-2.18-1.18-5.62-2.87-6.53-8.35-4.48-17-8.32-25.63-12.35-3-1.39-5.4-.69-7.43,2-2.72,3.57-5.69,6.95-8.38,10.56-2.46,3.3-5.1,3.93-9,2.29-18.54-7.68-32.53-20.45-43-37.36-1.64-2.66-1.43-4.8.64-7.2a75.55,75.55,0,0,0,7.79-10.33,7.85,7.85,0,0,0,.52-6q-4.58-12.12-10-24a11.2,11.2,0,0,0-4.77-5.33c-5.59-2.66-13.69-.73-18,3.77C67.66,81.43,64.09,90.15,64.08,102.69Z"/></svg>