<?xml version="1.0" encoding="utf-8"?>
<!-- Generator: Adobe Illustrator 25.4.1, SVG Export Plug-In . SVG Version: 6.00 Build 0)  -->
<svg version="1.1" id="Capa_1" xmlns="http://www.w3.org/2000/svg" xmlns:xlink="http://www.w3.org/1999/xlink" x="0px" y="0px"
	 viewBox="0 0 206.6 206.3" style="enable-background:new 0 0 206.6 206.3;" xml:space="preserve">
<style type="text/css">
	.st0{fill:#FFFFFF;}
	.st1{fill:url(#SVGID_1_);}
	.st2{fill:url(#SVGID_00000109016110939401522360000012689061632607269566_);}
	.st3{fill:url(#SVGID_00000063630196504004885220000018340327194795852164_);}
	.st4{fill:none;}
	.st5{fill:url(#SVGID_00000098215005301891247960000017988824896891399865_);}
	.st6{fill:url(#SVGID_00000024004036813618489200000010059620723841224596_);}
</style>
<g>
	<path class="st0" d="M103.3,3c55.3,0,100.3,45,100.3,100.3s-45,100.3-100.3,100.3S3,158.6,3,103.3S48,3,103.3,3 M103.3,0
		C46.3,0,0,46.3,0,103.3s46.3,103.3,103.3,103.3s103.3-46.3,103.3-103.3S160.4,0,103.3,0L103.3,0z"/>
</g>
<circle class="st0" cx="103.3" cy="103.3" r="95.1"/>
<g>
	<radialGradient id="SVGID_1_" cx="60.4775" cy="17.0833" r="211.1182" gradientUnits="userSpaceOnUse">
		<stop  offset="9.854276e-02" style="stop-color:#00BCFD"/>
		<stop  offset="0.1189" style="stop-color:#08B3FD"/>
		<stop  offset="0.226" style="stop-color:#2C85FE"/>
		<stop  offset="0.3088" style="stop-color:#4369FF"/>
		<stop  offset="0.3567" style="stop-color:#4B5FFF"/>
		<stop  offset="0.6917" style="stop-color:#811DF0"/>
		<stop  offset="0.8119" style="stop-color:#9604EB"/>
	</radialGradient>
	<path class="st1" d="M98.3,119.3c7.6,0,15.3,0,22.9,0c0.8,0,1.8,0.2,2.4,0.7c1.4,1.1,0.9,3.3-0.8,3.9c-0.6,0.2-1.3,0.2-1.9,0.2
		c-15,0-30,0-45,0c-0.4,0-0.8,0-1.1,0c-1.5-0.2-2.5-1.2-2.4-2.5c0-1.3,1.1-2.3,2.6-2.3c4.6,0,9.1,0,13.7,0
		C91.8,119.3,95,119.3,98.3,119.3z"/>
	
		<radialGradient id="SVGID_00000071533285511271600940000017336178716828611463_" cx="60.4775" cy="17.0833" r="211.1182" gradientUnits="userSpaceOnUse">
		<stop  offset="9.854276e-02" style="stop-color:#00BCFD"/>
		<stop  offset="0.1189" style="stop-color:#08B3FD"/>
		<stop  offset="0.226" style="stop-color:#2C85FE"/>
		<stop  offset="0.3088" style="stop-color:#4369FF"/>
		<stop  offset="0.3567" style="stop-color:#4B5FFF"/>
		<stop  offset="0.6917" style="stop-color:#811DF0"/>
		<stop  offset="0.8119" style="stop-color:#9604EB"/>
	</radialGradient>
	<path style="fill:url(#SVGID_00000071533285511271600940000017336178716828611463_);" d="M98.4,58.4c3.9,0,7.7,0,11.6,0
		c1.9,0,3,0.9,2.9,2.5c0,1.5-1.1,2.4-2.9,2.4c-7.9,0-15.7,0-23.6,0c-1.8,0-3-1-2.9-2.5c0-1.4,1.1-2.3,2.9-2.3
		C90.5,58.4,94.5,58.4,98.4,58.4z"/>
	
		<radialGradient id="SVGID_00000036931839342832988420000005403178534869444233_" cx="60.4775" cy="17.0833" r="211.1182" gradientUnits="userSpaceOnUse">
		<stop  offset="9.854276e-02" style="stop-color:#00BCFD"/>
		<stop  offset="0.1189" style="stop-color:#08B3FD"/>
		<stop  offset="0.226" style="stop-color:#2C85FE"/>
		<stop  offset="0.3088" style="stop-color:#4369FF"/>
		<stop  offset="0.3567" style="stop-color:#4B5FFF"/>
		<stop  offset="0.6917" style="stop-color:#811DF0"/>
		<stop  offset="0.8119" style="stop-color:#9604EB"/>
	</radialGradient>
	<path style="fill:url(#SVGID_00000036931839342832988420000005403178534869444233_);" d="M125.1,98.4c0-7.9,6.4-14.4,14.3-14.4
		c7.9,0,14.4,6.5,14.4,14.4c0,7.9-6.4,14.3-14.2,14.3C131.6,112.7,125.2,106.4,125.1,98.4z M133.6,91.1c-2.9,1.9-4.3,6-3.3,9.7
		c1.1,4.1,4.7,6.8,8.8,7c3.4,0.2,7.8-2.3,8.4-5C140.1,102.2,135.5,98.2,133.6,91.1z M148.7,97.7c0.2-5.1-5.5-9.8-10.3-8.6
		C138.2,94.1,143.6,98.7,148.7,97.7z"/>
	<g>
		<path class="st4" d="M104.8,95.6c3.9-6.4,9.1-11.3,15.7-14.9c2.4-1.3,2.4-1.3,2-4.1c-16.1,0-32.3,0-48.6,0c0,10.7,0,21.3,0,31.9
			c12.1,0,24.2,0,36.2,0c-1.8-2.5-3.5-4.9-5.3-7.3C103.6,99.3,103.7,97.5,104.8,95.6z"/>
		<path class="st4" d="M104.1,133.2c-0.2,0-0.7,0.5-0.7,0.8c0,3.9-0.1,7.8,0,11.8c0,0.3,0.6,0.9,0.9,0.9c3.1,0.1,6.2,0,9.5,0
			c0-4.6,0-9,0-13.6C110.5,133.2,107.3,133.2,104.1,133.2z"/>
		<path class="st4" d="M169.4,99.5c0.6-0.9,0.5-1.6-0.1-2.4c-7.2-10.6-17.2-15.8-29.9-16.3c-12.6,0.5-22.6,5.8-29.8,16.4
			c-0.6,0.8-0.6,1.4,0,2.3C123.1,121.2,155.7,121.2,169.4,99.5z"/>
		<path class="st4" d="M118.8,137.5c0.7,0,1.3,0,1.9,0c11,0,22,0,33.1,0c0.5,0,1.1-0.1,1.6,0.1c1.2,0.3,2,1.1,1.9,2.4
			c0,1.3-0.8,2.1-2.1,2.3c-0.5,0.1-1.1,0-1.6,0c-11,0-21.9,0-32.9,0c-0.6,0-1.2,0-1.9,0c0,1.5,0,2.9,0,4.3c13.1,0,26.2,0,39.3,0
			v-13.3c-13.1,0-26.2,0-39.2,0C118.8,134.8,118.8,136.1,118.8,137.5z"/>
		<path class="st4" d="M176.1,146.6c0-1.4,0-2.8,0-4.3c-3.3,0-6.4,0-9.5,0c-1.8,0-2.8-1-2.8-2.4c0-1.5,1.1-2.4,2.8-2.4
			c1,0,2,0,3.1,0c2.1,0,4.3,0,6.3,0c0-1.6,0-2.9,0-4.2c-6,0-12,0-18,0v13.3C164.1,146.6,170.1,146.6,176.1,146.6z"/>
		<path class="st4" d="M191.1,141.6c1.1-0.6,1.9-1.1,3-1.6c-1.1-0.6-1.9-1-3-1.6C191.1,139.5,191.1,140.4,191.1,141.6z"/>
		<path class="st4" d="M185.9,135.5c-1.5-0.8-3-1.5-4.8-2.4c0,4.7,0,9,0,13.7c1.6-0.8,3-1.3,4.2-2.1c0.4-0.3,0.8-0.9,0.9-1.5
			c0.1-2.2,0.1-4.4,0-6.6C186.2,136.2,186.1,135.6,185.9,135.5z"/>
		
			<radialGradient id="SVGID_00000016797234543359046990000007519666893844686260_" cx="60.4775" cy="17.0833" r="211.1182" gradientUnits="userSpaceOnUse">
			<stop  offset="9.854276e-02" style="stop-color:#00BCFD"/>
			<stop  offset="0.1189" style="stop-color:#08B3FD"/>
			<stop  offset="0.226" style="stop-color:#2C85FE"/>
			<stop  offset="0.3088" style="stop-color:#4369FF"/>
			<stop  offset="0.3567" style="stop-color:#4B5FFF"/>
			<stop  offset="0.6917" style="stop-color:#811DF0"/>
			<stop  offset="0.8119" style="stop-color:#9604EB"/>
		</radialGradient>
		<path style="fill:url(#SVGID_00000016797234543359046990000007519666893844686260_);" d="M118.8,146.6c0-1.4,0-2.7,0-4.3
			c0.7,0,1.3,0,1.9,0c11,0,21.9,0,32.9,0c0.5,0,1.1,0,1.6,0c1.3-0.2,2-1,2.1-2.3c0-1.3-0.7-2.1-1.9-2.4c-0.5-0.1-1.1-0.1-1.6-0.1
			c-11,0-22,0-33.1,0c-0.6,0-1.2,0-1.9,0c0-1.4,0-2.7,0-4.2c13.1,0,26.1,0,39.2,0v-5c-6.1,0-12.3,0-18.4,0c-0.7,0-1.3-0.1-2-0.1
			c0-2.6,0-5,0-7.5c0.6,0,1.1,0,1.7,0c15.1-0.4,26.8-7,34.9-19.8c1.1-1.7,1.1-3.4,0-5.1c-6.3-10.2-15.4-16.7-27.2-19
			c-3-0.6-6.2-0.7-9.4-1c0-0.5,0-1,0-1.6c0-9,0-18.1,0-27.1c0-3.7-1.4-5.1-5-5.1c-14.1,0-28.2,0-42.3,0c-0.4,0-0.9,0-1.3,0
			c-1.4,0.2-2.2,1-2.2,2.3c0,1.4,0.8,2.2,2.1,2.4c0.5,0.1,1.1,0,1.6,0c13.4,0,26.9,0,40.3,0c0.6,0,1.2,0,1.9,0c0,9.8,0,19.3,0,28.8
			c0,0.4-0.3,1-0.6,1.1c-1.4,0.4-2.9,0.7-4.4,1c0-0.4-0.1-0.6-0.1-0.8c-0.1-4.1-1.3-5.2-5.4-5.2c-16.1,0-32.2,0-48.3,0
			c-3.5,0-4.9,1.4-4.9,4.9c0,10.6,0,21.2,0,31.8c0,3.8,1.3,5.1,5.2,5.1c12.2,0,24.4,0.1,36.6,0c3.4,0,6.6,0.1,9.4,2.4
			c0.1,0.1,0.3,0.2,0.4,0.2c3.9,1.5,7.9,3.1,11.9,4.6c0,2.3,0,4.9,0,7.7c-0.7,0-1.4,0-2,0c-8.7,0-17.4,0-26.1,0
			c-1.9,0-3.5,0.4-4.8,1.9c-0.3,0.4-1.1,0.5-1.7,0.5c-4.1,0-8.2,0-12.3,0c-3.6,0-7.1,0-10.7,0c-2.2,0-3.5,2-2.3,3.6
			c0.5,0.7,1.7,1.2,2.6,1.2c7.2,0.1,14.3,0.1,21.5,0.1c0.6,0,1.1,0,1.7,0c0,2.4,0,4.5,0,6.7c-0.7,0-1.3,0-1.9,0
			c-7.1,0-14.2,0-21.3,0c-1.8,0-2.8,0.9-2.9,2.4c0,1.4,1.1,2.4,2.8,2.5c0.4,0,0.9,0,1.3,0c6.9,0,13.9,0,20.8,0
			c0.5,0,1.3,0.2,1.4,0.6c1,3.2,3.5,3.9,6.5,3.9c8.5-0.1,17,0,25.5,0c0.6,0,1.3,0,2,0c0,3.1,0,6.1,0,9.1c-22.9,0-45.7,0-68.6,0
			c0-38,0-75.8,0-113.9c4.4,0,8.6,0,12.8,0c1.9,0,3-0.9,3-2.4c0-1.6-1-2.5-3.1-2.5c-4.3,0-8.6,0-12.9,0c-3.3,0-4.8,1.5-4.8,4.8
			c0,38,0,76.1,0,114.1c0,3.3,1.5,4.8,4.8,4.8c22.9,0,45.8,0,68.7,0c3.5,0,4.9-1.4,4.9-4.9c0-3,0-6,0-9.2c0.8,0,1.4,0,2.1,0
			c6.2,0,12.3,0,18.5,0v-5C145,146.6,131.9,146.6,118.8,146.6z M74,108.5c0-10.6,0-21.2,0-31.9c16.3,0,32.5,0,48.6,0
			c0.4,2.9,0.4,2.8-2,4.1c-6.6,3.5-11.8,8.5-15.7,14.9c-1.2,1.9-1.3,3.7,0.1,5.5c1.7,2.4,3.5,4.8,5.3,7.3
			C98.2,108.5,86.1,108.5,74,108.5z M109.5,99.5c-0.5-0.9-0.5-1.5,0-2.3c7.1-10.6,17.1-15.9,29.8-16.4c12.8,0.4,22.8,5.7,29.9,16.3
			c0.6,0.9,0.7,1.5,0.1,2.4C155.7,121.2,123.1,121.2,109.5,99.5z M113.8,146.8c-3.3,0-6.4,0-9.5,0c-0.3,0-0.9-0.6-0.9-0.9
			c-0.1-3.9-0.1-7.8,0-11.8c0-0.3,0.4-0.8,0.7-0.8c3.2-0.1,6.4,0,9.7,0C113.8,137.7,113.8,142.1,113.8,146.8z"/>
		
			<radialGradient id="SVGID_00000080888175927423926790000006240074717478152342_" cx="39.9172" cy="17.0833" r="211.1182" gradientUnits="userSpaceOnUse">
			<stop  offset="9.854276e-02" style="stop-color:#00BCFD"/>
			<stop  offset="0.1189" style="stop-color:#08B3FD"/>
			<stop  offset="0.226" style="stop-color:#2C85FE"/>
			<stop  offset="0.3088" style="stop-color:#4369FF"/>
			<stop  offset="0.3567" style="stop-color:#4B5FFF"/>
			<stop  offset="0.6917" style="stop-color:#811DF0"/>
			<stop  offset="0.8119" style="stop-color:#9604EB"/>
		</radialGradient>
		<path style="fill:url(#SVGID_00000080888175927423926790000006240074717478152342_);" d="M177,136.3c-3.5-1.9-7.1-3.8-10.6-5.8
			c-2.7-1.5-5.5-2.2-8.6-2.2c-6.8,0-13.5,0-20.3,0v5c6,0,12,0,18,0c0,1.3,0,2.6,0,4.2c-2.1,0-4.2,0-6.3,0c-1,0-2,0-3.1,0
			c-1.8,0-2.8,0.9-2.8,2.4c0,1.5,1,2.4,2.8,2.4c3.1,0,6.2,0,9.5,0c0,1.5,0,2.9,0,4.3c-6,0-12,0-18.1,0v5c6.9,0,13.7,0,20.6,0
			c2.8,0,5.4-0.6,7.9-2c3.7-2,7.4-4,11-6c1.5-0.8,2.7-1.8,2.6-3.7C179.6,138.1,178.5,137.1,177,136.3z M165.6,143.2
			c0,0.5-0.4,1.2-0.9,1.5c-1.3,0.7-2.6,1.3-4.2,2.1c0-4.7,0-8.9,0-13.7c1.7,0.9,3.3,1.6,4.8,2.4c0.2,0.1,0.3,0.7,0.3,1.1
			C165.7,138.8,165.7,141,165.6,143.2z M170.6,141.6c0-1.2,0-2.1,0-3.2c1,0.6,1.9,1,3,1.6C172.5,140.5,171.6,141,170.6,141.6z"/>
	</g>
</g>
</svg>
