<?xml version="1.0" encoding="utf-8"?>
<!-- Generator: Adobe Illustrator 25.4.1, SVG Export Plug-In . SVG Version: 6.00 Build 0)  -->
<svg version="1.1" id="Capa_1" xmlns="http://www.w3.org/2000/svg" xmlns:xlink="http://www.w3.org/1999/xlink" x="0px" y="0px"
	 viewBox="0 0 206.6 206.3" style="enable-background:new 0 0 206.6 206.3;" xml:space="preserve">
<style type="text/css">
	.st0{fill:#FFFFFF;}
	.st1{fill:url(#SVGID_1_);}
	.st2{fill:url(#SVGID_00000093147818395899648500000015488412072420763301_);}
	.st3{fill:url(#SVGID_00000009554035410407479260000002934723867347403163_);}
	.st4{fill:url(#SVGID_00000142142593549800008700000008162278952064434094_);}
	.st5{fill:url(#SVGID_00000115508761294434116750000011941046878808866475_);}
	.st6{fill:url(#SVGID_00000120539536042339581780000006617157099559564197_);}
	.st7{fill:url(#SVGID_00000013152310874094465720000017761895227029346437_);}
	.st8{fill:url(#SVGID_00000060736847853145767030000005567110884151311029_);}
	.st9{fill:url(#SVGID_00000088104873178643060130000013887017426711886004_);}
	.st10{fill:url(#SVGID_00000166659893134777953950000015690393041360477592_);}
	.st11{fill:url(#SVGID_00000099661258735866691760000010019242739175726013_);}
</style>
<g>
	<path class="st0" d="M103.3,3c55.3,0,100.3,45,100.3,100.3s-45,100.3-100.3,100.3S3,158.6,3,103.3S48,3,103.3,3 M103.3,0
		C46.3,0,0,46.3,0,103.3s46.3,103.3,103.3,103.3s103.3-46.3,103.3-103.3S160.4,0,103.3,0L103.3,0z"/>
</g>
<circle class="st0" cx="103.3" cy="103.3" r="95.1"/>
<g>
	<radialGradient id="SVGID_1_" cx="55.4793" cy="44.4635" r="146.372" gradientUnits="userSpaceOnUse">
		<stop  offset="9.854276e-02" style="stop-color:#00BCFD"/>
		<stop  offset="0.1189" style="stop-color:#08B3FD"/>
		<stop  offset="0.226" style="stop-color:#2C85FE"/>
		<stop  offset="0.3088" style="stop-color:#4369FF"/>
		<stop  offset="0.3567" style="stop-color:#4B5FFF"/>
		<stop  offset="0.6917" style="stop-color:#811DF0"/>
		<stop  offset="0.8119" style="stop-color:#9604EB"/>
	</radialGradient>
	<path class="st1" d="M123.2,41c2.4,0.5,4.5,1.4,6.1,3.3c1.6,1.9,2.3,4.1,2.3,6.6c0,3.4,0,6.8,0,10.3c0,2-0.8,3.2-2.3,3.3
		c-1.5,0.1-2.4-0.9-2.6-3c-22.8,0-45.6,0-68.5,0c0,26.8,0,53.6,0,80.5c17.1,0,34.3,0,51.6,0c-1.6-2.8-3.1-5.4-4.7-8.2
		c-1.4,0.6-2.6,1.3-4,1.8c-6.6,2.3-13.8-0.8-16.9-7.2c-3-6.1-0.9-13.8,4.9-17.4c3.7-2.4,7.6-4.5,11.4-6.7c0.5-0.3,1-0.8,1.4-1.2
		c8.9-11.3,17.8-22.7,26.7-34c0.7-0.9,1.5-1.7,2.7-1.3c0.8,0.3,1.5,0.9,1.9,1.6c2.8,4.6,5.4,9.3,8.1,14c0.4,0.6,0.7,0.9,1.5,0.7
		c4.7-1,9.4,1.2,11.7,5.2c2.3,4.1,1.7,9.1-1.4,12.7c-0.2,0.2-0.4,0.4-0.6,0.7c1.6,2.7,3.1,5.4,4.7,8.1c1.3,2.3,2.7,4.6,4,6.9
		c1.1,2,0.3,3.7-2,4c-4.6,0.6-9.2,1.3-13.7,1.9c-4.6,0.7-9.2,1.3-13.9,2c0,0.5,0,0.9,0,1.4c0,9.3,0,18.5,0,27.8
		c0,4.9-2.6,8.5-7.1,9.7c-1,0.3-2,0.4-3,0.4c-19.4,0-38.8,0-58.2,0c-5.9,0-10-4.1-10-10.1c0-34.5,0-69,0-103.5c0-5.4,3.6-9.3,8.1-10
		c0.1,0,0.2-0.1,0.3-0.1C82.3,41,102.7,41,123.2,41z M58.2,146.8c0,2.8,0,5.5,0,8.2c0,2.9,2,4.8,4.9,4.8c19.6,0,39.2,0,58.8,0
		c2.9,0,4.8-2,4.9-4.9c0-2.5,0-4.9,0-7.4c0-0.3-0.1-0.5-0.1-0.8C103.9,146.8,81.1,146.8,58.2,146.8z M123.6,83.3
		c-0.2,0.3-0.3,0.4-0.3,0.5c-5.6,7.1-11.1,14.2-16.7,21.3c-0.5,0.6-0.4,1,0,1.6c2.9,5,5.8,9.9,8.6,14.9c0.6,1,1.1,1.2,2.2,1
		c4.8-0.7,9.7-1.4,14.6-2.1c4-0.6,8-1.1,12.2-1.7C137.2,106.9,130.4,95.2,123.6,83.3z M126.8,56.4c0-1.7,0-3.3,0-4.9
		c0-3.9-1.7-5.7-5.7-5.7c-19.1,0-38.2,0-57.2,0c-0.4,0-0.9,0-1.3,0c-2.2,0.2-4.1,1.8-4.3,3.9c-0.2,2.2,0,4.4,0,6.6
		C81.1,56.4,103.9,56.4,126.8,56.4z M102.2,108.8c-3.7,2.2-7.4,4.3-10.9,6.6c-2.4,1.6-3.5,4.1-3.4,7c0.1,7.2,7.3,11.3,13.7,7.8
		c3.1-1.7,6.1-3.5,9.2-5.3c0.2-0.1,0.3-0.2,0.5-0.4C108.2,119.2,105.2,114,102.2,108.8z M155.5,117.1c-8.3-14.4-16.5-28.6-24.8-42.9
		c-1.2,1.5-2.1,2.8-3.2,4c-0.6,0.7-0.7,1.2-0.2,2.1c3.1,5.2,6.1,10.5,9.1,15.7c4.1,7,8.1,14.1,12.2,21.1c0.2,0.4,0.7,0.8,1,0.8
		C151.6,117.7,153.5,117.4,155.5,117.1z M118.6,127.2c0.1,0.3,0.1,0.4,0.1,0.4c1.8,3.1,3.6,6.2,5.3,9.3c0.4,0.8,1,1.7,1,2.5
		c0,0.8-0.7,1.6-1.1,2.4c0.8,0,1.9,0,2.9,0c0-5.3,0-10.5,0-15.8C124,126.5,121.3,126.9,118.6,127.2z M119.4,138.5
		c-1.9-3.3-3.8-6.6-5.7-9.9c-1.5,0.9-2.9,1.7-4.3,2.5c1.9,3.3,3.8,6.6,5.7,9.9C116.5,140.2,117.9,139.4,119.4,138.5z M144.5,88.4
		c1.9,3.3,3.7,6.4,5.6,9.6c1.4-2.3,1.6-4.5,0.3-6.7C149.2,89.2,147.2,88.3,144.5,88.4z"/>
	
		<radialGradient id="SVGID_00000026885921997830028670000010928541195503034303_" cx="55.4793" cy="44.4635" r="146.372" gradientUnits="userSpaceOnUse">
		<stop  offset="9.854276e-02" style="stop-color:#00BCFD"/>
		<stop  offset="0.1189" style="stop-color:#08B3FD"/>
		<stop  offset="0.226" style="stop-color:#2C85FE"/>
		<stop  offset="0.3088" style="stop-color:#4369FF"/>
		<stop  offset="0.3567" style="stop-color:#4B5FFF"/>
		<stop  offset="0.6917" style="stop-color:#811DF0"/>
		<stop  offset="0.8119" style="stop-color:#9604EB"/>
	</radialGradient>
	<path style="fill:url(#SVGID_00000026885921997830028670000010928541195503034303_);" d="M177.1,78.2c-0.8,0.7-1.4,1.5-2.3,2
		c-3.3,2-6.7,3.9-10,5.8c-0.3,0.2-0.6,0.4-1,0.5c-1.1,0.5-2.4,0.1-3-0.9c-0.7-1.1-0.5-2.3,0.5-3.1c0.3-0.3,0.7-0.5,1-0.7
		c3.5-2,7-4.1,10.5-6.1c2-1.1,3.1-0.8,4.2,1.2C177.1,77.4,177.1,77.8,177.1,78.2z"/>
	
		<radialGradient id="SVGID_00000016034544406487451090000008710668490733110670_" cx="55.4793" cy="44.4635" r="146.372" gradientUnits="userSpaceOnUse">
		<stop  offset="9.854276e-02" style="stop-color:#00BCFD"/>
		<stop  offset="0.1189" style="stop-color:#08B3FD"/>
		<stop  offset="0.226" style="stop-color:#2C85FE"/>
		<stop  offset="0.3088" style="stop-color:#4369FF"/>
		<stop  offset="0.3567" style="stop-color:#4B5FFF"/>
		<stop  offset="0.6917" style="stop-color:#811DF0"/>
		<stop  offset="0.8119" style="stop-color:#9604EB"/>
	</radialGradient>
	<path style="fill:url(#SVGID_00000016034544406487451090000008710668490733110670_);" d="M82.6,73.2c-5.2,0-10.5,0-15.7,0
		c-0.4,0-0.9,0-1.3,0c-1.2-0.2-2-1.1-2-2.2c-0.1-1.2,0.6-2.1,1.7-2.4c0.5-0.1,1-0.2,1.4-0.2c10.6,0,21.2,0,31.8,0c0.3,0,0.6,0,1,0.1
		c1.4,0.2,2.2,1.2,2.2,2.5c0,1.3-1,2.3-2.5,2.3c-2,0-4,0-6,0C89.6,73.2,86.1,73.2,82.6,73.2z"/>
	
		<radialGradient id="SVGID_00000105395540792630545690000006452531727792467386_" cx="55.4793" cy="44.4635" r="146.372" gradientUnits="userSpaceOnUse">
		<stop  offset="9.854276e-02" style="stop-color:#00BCFD"/>
		<stop  offset="0.1189" style="stop-color:#08B3FD"/>
		<stop  offset="0.226" style="stop-color:#2C85FE"/>
		<stop  offset="0.3088" style="stop-color:#4369FF"/>
		<stop  offset="0.3567" style="stop-color:#4B5FFF"/>
		<stop  offset="0.6917" style="stop-color:#811DF0"/>
		<stop  offset="0.8119" style="stop-color:#9604EB"/>
	</radialGradient>
	<path style="fill:url(#SVGID_00000105395540792630545690000006452531727792467386_);" d="M77.5,84.8c-3.7,0-7.5,0-11.2,0
		c-1.1,0-2.1-0.4-2.6-1.4c-0.6-1.3,0.1-2.8,1.4-3.2c0.5-0.2,1.1-0.2,1.7-0.2c7.2,0,14.3,0,21.5,0c0.5,0,1,0,1.4,0.1
		c1.2,0.3,1.9,1.2,1.9,2.4c-0.1,1.2-0.9,2.1-2.2,2.2c-1.1,0.1-2.2,0-3.3,0C83.3,84.8,80.4,84.8,77.5,84.8z"/>
	
		<radialGradient id="SVGID_00000140720257134572024920000003521181174975371674_" cx="55.4793" cy="44.4635" r="146.372" gradientUnits="userSpaceOnUse">
		<stop  offset="9.854276e-02" style="stop-color:#00BCFD"/>
		<stop  offset="0.1189" style="stop-color:#08B3FD"/>
		<stop  offset="0.226" style="stop-color:#2C85FE"/>
		<stop  offset="0.3088" style="stop-color:#4369FF"/>
		<stop  offset="0.3567" style="stop-color:#4B5FFF"/>
		<stop  offset="0.6917" style="stop-color:#811DF0"/>
		<stop  offset="0.8119" style="stop-color:#9604EB"/>
	</radialGradient>
	<path style="fill:url(#SVGID_00000140720257134572024920000003521181174975371674_);" d="M84.3,96.3c-2.9,0-5.8,0-8.7,0
		c-1.8,0-2.9-1-2.9-2.4c0-1.4,1.1-2.4,2.9-2.4c5.8,0,11.6,0,17.4,0c1.8,0,2.9,1,2.9,2.4c0,1.4-1.1,2.4-2.9,2.4
		C90.1,96.4,87.2,96.3,84.3,96.3z"/>
	
		<radialGradient id="SVGID_00000057865479569989747290000010345304194298368908_" cx="55.4793" cy="44.4635" r="146.372" gradientUnits="userSpaceOnUse">
		<stop  offset="9.854276e-02" style="stop-color:#00BCFD"/>
		<stop  offset="0.1189" style="stop-color:#08B3FD"/>
		<stop  offset="0.226" style="stop-color:#2C85FE"/>
		<stop  offset="0.3088" style="stop-color:#4369FF"/>
		<stop  offset="0.3567" style="stop-color:#4B5FFF"/>
		<stop  offset="0.6917" style="stop-color:#811DF0"/>
		<stop  offset="0.8119" style="stop-color:#9604EB"/>
	</radialGradient>
	<path style="fill:url(#SVGID_00000057865479569989747290000010345304194298368908_);" d="M163.7,98.1c0.1-1.7,1.2-2.9,2.5-2.6
		c2.5,0.5,5.1,1.2,7.5,2c1.2,0.4,1.6,1.6,1.3,2.8c-0.3,1.2-1.5,2-2.7,1.7c-2.3-0.5-4.7-1.2-7-1.9C164.2,99.8,163.7,98.9,163.7,98.1z
		"/>
	
		<radialGradient id="SVGID_00000080180111809465391360000002871675740695633851_" cx="55.4793" cy="44.4635" r="146.372" gradientUnits="userSpaceOnUse">
		<stop  offset="9.854276e-02" style="stop-color:#00BCFD"/>
		<stop  offset="0.1189" style="stop-color:#08B3FD"/>
		<stop  offset="0.226" style="stop-color:#2C85FE"/>
		<stop  offset="0.3088" style="stop-color:#4369FF"/>
		<stop  offset="0.3567" style="stop-color:#4B5FFF"/>
		<stop  offset="0.6917" style="stop-color:#811DF0"/>
		<stop  offset="0.8119" style="stop-color:#9604EB"/>
	</radialGradient>
	<path style="fill:url(#SVGID_00000080180111809465391360000002871675740695633851_);" d="M156.6,68.8c-0.5,1.9-1.2,4.3-1.9,6.7
		c-0.4,1.1-1.6,1.6-2.7,1.3c-1.1-0.3-2-1.2-1.7-2.4c0.5-2.5,1.2-5,2-7.4c0.3-1.1,1.6-1.5,2.7-1.2C156,66,156.6,67,156.6,68.8z"/>
	
		<radialGradient id="SVGID_00000113310777060628090350000005209771424021777835_" cx="55.4793" cy="44.4635" r="146.372" gradientUnits="userSpaceOnUse">
		<stop  offset="9.854276e-02" style="stop-color:#00BCFD"/>
		<stop  offset="0.1189" style="stop-color:#08B3FD"/>
		<stop  offset="0.226" style="stop-color:#2C85FE"/>
		<stop  offset="0.3088" style="stop-color:#4369FF"/>
		<stop  offset="0.3567" style="stop-color:#4B5FFF"/>
		<stop  offset="0.6917" style="stop-color:#811DF0"/>
		<stop  offset="0.8119" style="stop-color:#9604EB"/>
	</radialGradient>
	<path style="fill:url(#SVGID_00000113310777060628090350000005209771424021777835_);" d="M65.9,91.5c1.3,0,2.5,1.2,2.4,2.5
		c-0.1,1.3-1.2,2.3-2.5,2.3c-1.4,0-2.4-1.1-2.4-2.5C63.5,92.5,64.6,91.5,65.9,91.5z"/>
	
		<radialGradient id="SVGID_00000057857162165573864330000001748135218140485041_" cx="55.4793" cy="44.4635" r="146.372" gradientUnits="userSpaceOnUse">
		<stop  offset="9.854276e-02" style="stop-color:#00BCFD"/>
		<stop  offset="0.1189" style="stop-color:#08B3FD"/>
		<stop  offset="0.226" style="stop-color:#2C85FE"/>
		<stop  offset="0.3088" style="stop-color:#4369FF"/>
		<stop  offset="0.3567" style="stop-color:#4B5FFF"/>
		<stop  offset="0.6917" style="stop-color:#811DF0"/>
		<stop  offset="0.8119" style="stop-color:#9604EB"/>
	</radialGradient>
	<path style="fill:url(#SVGID_00000057857162165573864330000001748135218140485041_);" d="M99.3,84.7c-1.3,0-2.4-1-2.4-2.3
		c0-1.3,1-2.4,2.3-2.5c1.3,0,2.4,1.1,2.4,2.3C101.6,83.6,100.6,84.7,99.3,84.7z"/>
	
		<radialGradient id="SVGID_00000146458872675469772630000007759674499023040415_" cx="55.4793" cy="44.4635" r="146.372" gradientUnits="userSpaceOnUse">
		<stop  offset="9.854276e-02" style="stop-color:#00BCFD"/>
		<stop  offset="0.1189" style="stop-color:#08B3FD"/>
		<stop  offset="0.226" style="stop-color:#2C85FE"/>
		<stop  offset="0.3088" style="stop-color:#4369FF"/>
		<stop  offset="0.3567" style="stop-color:#4B5FFF"/>
		<stop  offset="0.6917" style="stop-color:#811DF0"/>
		<stop  offset="0.8119" style="stop-color:#9604EB"/>
	</radialGradient>
	<path style="fill:url(#SVGID_00000146458872675469772630000007759674499023040415_);" d="M92.5,150.7c1.3,0,2.4,1.1,2.4,2.3
		c0,1.2-1.1,2.4-2.4,2.4c-1.3,0-2.4-1.1-2.4-2.4C90.1,151.8,91.2,150.7,92.5,150.7z"/>
	
		<radialGradient id="SVGID_00000160870668437839355510000000121881956096903808_" cx="55.4793" cy="44.4635" r="146.372" gradientUnits="userSpaceOnUse">
		<stop  offset="9.854276e-02" style="stop-color:#00BCFD"/>
		<stop  offset="0.1189" style="stop-color:#08B3FD"/>
		<stop  offset="0.226" style="stop-color:#2C85FE"/>
		<stop  offset="0.3088" style="stop-color:#4369FF"/>
		<stop  offset="0.3567" style="stop-color:#4B5FFF"/>
		<stop  offset="0.6917" style="stop-color:#811DF0"/>
		<stop  offset="0.8119" style="stop-color:#9604EB"/>
	</radialGradient>
	<path style="fill:url(#SVGID_00000160870668437839355510000000121881956096903808_);" d="M92.4,53.6c-2.7,0-5.5,0-8.2,0
		c-1.5,0-2.5-0.8-2.7-2c-0.3-1.5,0.9-2.8,2.7-2.8c3.8,0,7.6,0,11.3,0c1.8,0,3.5,0,5.3,0c1.7,0,2.8,1,2.8,2.4c0,1.4-1.1,2.4-2.8,2.4
		C98,53.6,95.2,53.6,92.4,53.6z"/>
</g>
</svg>
