<svg id="Capa_1" data-name="Capa 1" xmlns="http://www.w3.org/2000/svg" xmlns:xlink="http://www.w3.org/1999/xlink" viewBox="0 0 395.8 395.8"><defs><style>.cls-1{fill:#fff;}.cls-2{fill:url(#Degradado_sin_nombre_3);}.cls-3{fill:url(#Degradado_sin_nombre_5);}</style><radialGradient id="Degradado_sin_nombre_3" cx="92.78" cy="91.68" r="324.78" gradientUnits="userSpaceOnUse"><stop offset="0.1" stop-color="#00bcfd"/><stop offset="0.12" stop-color="#08b3fd"/><stop offset="0.23" stop-color="#2c85fe"/><stop offset="0.31" stop-color="#4369ff"/><stop offset="0.36" stop-color="#4b5fff"/><stop offset="0.69" stop-color="#811df0"/><stop offset="0.81" stop-color="#9604eb"/></radialGradient><radialGradient id="Degradado_sin_nombre_5" cx="92.78" cy="91.68" r="324.78" gradientUnits="userSpaceOnUse"><stop offset="0.18" stop-color="#00bcfd"/><stop offset="0.2" stop-color="#08b3fd"/><stop offset="0.33" stop-color="#2c85fe"/><stop offset="0.43" stop-color="#4369ff"/><stop offset="0.49" stop-color="#4b5fff"/><stop offset="0.81" stop-color="#811df0"/><stop offset="0.92" stop-color="#9604eb"/></radialGradient></defs><circle class="cls-1" cx="198.26" cy="197.93" r="197.5"/><path class="cls-2" d="M290.28,309c-10.06,6.15-21.3,8.91-32.7,11.08-2,.38-4.2-.25-6.27-.06-22.72,2.07-45.49,1.1-68.24,1.26-14.07.1-28.16.11-42.2-1-13.88-1.15-27-4.79-38.45-13.1a62.52,62.52,0,0,1-18.25-21.35c-6.5-12.08-8.3-25.24-9-38.73-.67-12.85-.31-25.71-.74-38.55.09-16.08,0-32.16.35-48.23.25-11.74.35-23.54,3.55-35,7.86-28,26.62-43.94,55-48.66,14.27-2.37,28.75-2,43.15-2.07,23.62-.09,47.25-.39,70.86.6,12.28.52,24.31,2.18,35.53,7.58,18.35,8.83,29.7,23.38,34.73,43,3.6,14,3.42,28.35,3.51,42.64.17,28,.8,56.12-.86,84.15-1.1,18.45-6.64,35.18-20.26,48.48A108,108,0,0,1,290.28,309Zm-12-18.58.13-.14a38.25,38.25,0,0,0,12.52-12.56c6.07-9.78,7.42-20.75,7.87-31.9,1-25.61.74-51.23.49-76.84-.1-10.63-.06-21.29-1.67-31.85-1.85-12-6.5-22.63-16.6-30-8.89-6.51-19.24-9.22-30.05-9.71-33.47-1.52-67-1.1-100.46-.36-9.23.2-18.43,1.15-27,5-16.19,7.26-23.81,20.58-25.5,37.61-2.25,22.67-1.39,45.42-1.3,68.14,0,4.54-.19,9.08-.1,13.62.24,13.4-.2,26.83,2.11,40.13,3.08,17.73,15.68,30.79,33.17,34.83,12.25,2.83,24.69,2.57,37.06,2.75,25.6.38,51.22.49,76.83-.42,11.27-.4,22.24-2,32.15-8A.32.32,0,0,0,278.23,290.41Z"/><path class="cls-3" d="M135.19,207.77l-.18-1.32a68,68,0,0,1,5.74-36.3c1.87-4.18,4.72-7.94,7.57-11.61,16.51-21.34,45.08-28.93,69.17-20.93a63.4,63.4,0,0,1,43.68,59.16c.06,5.34.11,10.9-1.35,15.78-2.6,8.71-6.15,17.28-12.28,24.37-15.4,18.36-35,26.92-58.79,23.13-27.54-4.4-44.92-20.86-52.37-47.75-.26-.94-.2-2-1.17-2.66C135.21,209,135.2,208.4,135.19,207.77Zm94.6,15.38v0a5.17,5.17,0,0,0,2.2-1.92,40.81,40.81,0,0,0,7.29-23.79,41.32,41.32,0,0,0-73.81-25.21c-4.33,5.5-7.83,11.55-7.72,19a2.72,2.72,0,0,0-.75,2.47c-.08.71-.15,1.42-.22,2.13A32.84,32.84,0,0,0,159.41,213c8.09,19.05,26.74,29.2,46.81,25.24,9.52-1.89,17.64-6.37,23.35-14.54A.64.64,0,0,0,229.79,223.15Z"/><path class="cls-3" d="M263.93,146.71c-6.64.2-15.18-5.16-15-14.72a15,15,0,0,1,14.6-14.68A14.74,14.74,0,0,1,278.39,132,14.58,14.58,0,0,1,263.93,146.71Z"/></svg>