<svg id="Capa_1" data-name="Capa 1" xmlns="http://www.w3.org/2000/svg" viewBox="0 0 37.97 75"><defs><style>.cls-1{fill:#fff;}</style></defs><path class="cls-1" d="M9.58,52.3H9.5a8.58,8.58,0,0,1-8-4.52A11.17,11.17,0,0,1,.14,43.36V14.06A14.07,14.07,0,0,1,14.19,0H30a9,9,0,0,1,3.79,1c1.78.91,4,2.86,4.21,7V8c0,.07.21,7.15-7.88,8H19.43a10.81,10.81,0,0,0-5.92,1.71,8.82,8.82,0,0,0-4.14,7.82,9.84,9.84,0,0,0,4.17,7.91,9.15,9.15,0,0,0,8.31,1.38,8.94,8.94,0,0,0,5.48-5.25,6.43,6.43,0,0,0-.52-5.69,5.74,5.74,0,0,0-6.26-2.56,4.27,4.27,0,0,0-2.82,2.58,3.25,3.25,0,0,0,.8,3.41,2.56,2.56,0,0,0,3.18.14A1.37,1.37,0,0,0,22.24,26a.46.46,0,0,0-.37-.31.33.33,0,0,0-.32.13,1.06,1.06,0,0,1-1.7-1.25,2.43,2.43,0,0,1,2.28-1,2.61,2.61,0,0,1,2.07,1.61,3.45,3.45,0,0,1-1.13,3.84,4.65,4.65,0,0,1-5.94-.17,5.38,5.38,0,0,1-1.4-5.69,6.45,6.45,0,0,1,4.2-3.92,7.86,7.86,0,0,1,8.68,3.49,8.52,8.52,0,0,1,.7,7.51,11.1,11.1,0,0,1-6.8,6.54,11.24,11.24,0,0,1-10.2-1.67,12,12,0,0,1-5.06-9.63,10.94,10.94,0,0,1,5.11-9.59,12.91,12.91,0,0,1,7.07-2H29.91c2.55-.29,4.32-1.34,5.26-3.12A6.22,6.22,0,0,0,35.86,8,5.89,5.89,0,0,0,30,2.11H14.19a12,12,0,0,0-11.94,12V43.28c0,.49.55,6.91,7.26,6.91h0c.27,0,6.66.09,7.22-7.31V40.27a1.06,1.06,0,1,1,2.12,0V43c-.36,4.93-2.9,7.2-5,8.25A10.26,10.26,0,0,1,9.58,52.3Z"/><path class="cls-1" d="M3.63,69.29H.53a.46.46,0,0,0-.2,0,.53.53,0,0,0-.32.47H0v4.54a.53.53,0,0,0,.52.52.52.52,0,0,0,.52-.52V72.6H3.11a.52.52,0,0,0,0-1H1.05V70.34h2.5v0h.08a.52.52,0,0,0,0-1Z"/><path class="cls-1" d="M5.62,69.1a.52.52,0,1,0,0,1,.52.52,0,1,0,0-1Z"/><path class="cls-1" d="M5.62,70.68a.52.52,0,0,0-.52.52v3.15a.52.52,0,0,0,.52.52.53.53,0,0,0,.52-.52V71.2A.52.52,0,0,0,5.62,70.68Z"/><path class="cls-1" d="M9.24,70.68A2.12,2.12,0,0,0,8.17,71V69.68a.52.52,0,0,0-.52-.52.52.52,0,0,0-.52.52V74.4h0a.52.52,0,0,0,.52.52.5.5,0,0,0,.46-.28h0A2.09,2.09,0,0,0,11,74,2.15,2.15,0,0,0,9.24,70.68ZM8.15,74.54v0h0v0Zm0-.14Zm1.07-.47a1.09,1.09,0,0,1-1.07-1.1h0a1.06,1.06,0,0,1,1.95-.62A1.1,1.1,0,0,1,9.24,73.93Z"/><path class="cls-1" d="M16.31,72a2.18,2.18,0,0,0-.8-1,2.09,2.09,0,0,0-1.23-.37h0a2.2,2.2,0,0,0-.86.17,2.15,2.15,0,0,0-1,.78,2.51,2.51,0,0,0-.28.57,2.38,2.38,0,0,0-.1.65h0a.54.54,0,0,0,.24.44.54.54,0,0,1-.24-.44A2.2,2.2,0,0,0,14.28,75h0a2.19,2.19,0,0,0,2.21-2.18h0A2,2,0,0,0,16.31,72Zm-.86.85a1.18,1.18,0,0,1-2.35,0h0a1,1,0,0,1,.1-.43,1.1,1.1,0,0,1,.42-.51,1,1,0,0,1,.3-.14,1.42,1.42,0,0,1,.36,0,1.18,1.18,0,0,1,.46.09,1.15,1.15,0,0,1,.51.41,1.4,1.4,0,0,1,.15.3,1.2,1.2,0,0,1,0,.33h0a.51.51,0,0,0,.32.48A.51.51,0,0,1,15.45,72.82Z"/><path class="cls-1" d="M21.09,72.48h0a1.91,1.91,0,0,0-2.84-1.62h0a.51.51,0,0,0-.44-.25.52.52,0,0,0-.52.52v3.21h0a.52.52,0,0,0,1,0h0V72.48h0A.87.87,0,0,1,20,72.24a.67.67,0,0,1,0,.24h0v1.91h0a.52.52,0,0,0,1,0h0V72.48Z"/><path class="cls-1" d="M25.79,70.68a.53.53,0,0,0-.51.41h0A2.08,2.08,0,0,0,24,70.64h0a2.15,2.15,0,0,0-1.94,3A2.11,2.11,0,0,0,24,74.94h0a2.09,2.09,0,0,0,1.29-.45h0a.52.52,0,0,0,1-.13V71.2A.52.52,0,0,0,25.79,70.68ZM24,73.9h0a1.11,1.11,0,0,1,0-2.22h0a1.06,1.06,0,0,1,.88.49A1.11,1.11,0,0,1,24,73.9Z"/><path class="cls-1" d="M30.41,71.92h0a.48.48,0,0,0,.35.14.52.52,0,0,0,.34-.91h0a2.24,2.24,0,0,0-3.74,1.61h0a2,2,0,0,0,.18.85,2.11,2.11,0,0,0,.81,1,2.09,2.09,0,0,0,1.24.37h0a2.36,2.36,0,0,0,.8-.14,2.44,2.44,0,0,0,.68-.4h0a.51.51,0,0,0,.19-.39.52.52,0,0,0-.53-.52.53.53,0,0,0-.34.13h0a1.07,1.07,0,0,1-.36.21,1.22,1.22,0,0,1-.43.08,1.23,1.23,0,0,1-.47-.09,1.19,1.19,0,0,1-.52-.42,1.59,1.59,0,0,1-.15-.29,1.27,1.27,0,0,1-.05-.34A1.19,1.19,0,0,1,30.41,71.92Z"/><path class="cls-1" d="M35.11,71.92h0a.48.48,0,0,0,.34.14.52.52,0,0,0,.52-.52.51.51,0,0,0-.17-.39h0a2.23,2.23,0,0,0-3.73,1.61h0a2.13,2.13,0,0,0,1,1.81,2.46,2.46,0,0,0,.59.28,2.32,2.32,0,0,0,.65.09h0a2.19,2.19,0,0,0,1.48-.54h0A.5.5,0,0,0,36,74a.52.52,0,0,0-.86-.39h0a1.31,1.31,0,0,1-.36.21,1.27,1.27,0,0,1-.44.08,1.18,1.18,0,0,1-.46-.09,1.09,1.09,0,0,1-.52-.42.89.89,0,0,1-.15-.29,1.27,1.27,0,0,1-.05-.34A1.19,1.19,0,0,1,35.11,71.92Z"/><path class="cls-1" d="M37.45,69.1a.52.52,0,1,0,.52.52A.52.52,0,0,0,37.45,69.1Z"/><path class="cls-1" d="M37.45,70.68a.52.52,0,0,0-.52.52v3.15a.52.52,0,0,0,1,0V71.2A.52.52,0,0,0,37.45,70.68Z"/><path class="cls-1" d="M3.4,61.91c-.57-.12-1.54-.38-1.54-1v0h0c0-.66.27-1,1.3-1a3.75,3.75,0,0,1,1.92.55h0a.87.87,0,0,0,.36.09.79.79,0,0,0,.36-1.5h0a8.32,8.32,0,0,0-1-.46C2.9,57.94.34,58.32.27,60.89h0V61a2,2,0,0,0,.09.61C1.08,64,5,63.13,5.05,64.63c0,.51-.38,1-1.49,1a4,4,0,0,1-2.34-.78h0a.86.86,0,0,0-.43-.12.79.79,0,0,0-.44,1.45h0a5.6,5.6,0,0,0,3.21,1c2,0,3.07-1.18,3.07-2.59C6.63,62.93,5.05,62.26,3.4,61.91Z"/><path class="cls-1" d="M12.14,66.11a.79.79,0,0,0-.79-.79h-.12c-.62.09-1,0-1-.64V62H11.3a.8.8,0,1,0,0-1.59H10.21V58.87a.8.8,0,1,0-1.59,0h0v1.49H8.14a.8.8,0,0,0,0,1.59h.48v2.7a2.22,2.22,0,0,0,2.84,2.25h0A.79.79,0,0,0,12.14,66.11Z"/><path class="cls-1" d="M13.35,64.13v0a2.89,2.89,0,0,0,4.32,2.46h0a.79.79,0,0,0,1.47-.41V61.34h0a.8.8,0,0,0-1.59,0h0v2.83h0a1.32,1.32,0,0,1-2.56.36,1.36,1.36,0,0,1-.05-.36h0V61.27h0a.79.79,0,0,0-1.57,0h0v2.86Zm4.23,2.31a.06.06,0,0,0,0,0h0A.06.06,0,0,1,17.58,66.44Zm0-.22a.77.77,0,0,0,0,.15h0a.77.77,0,0,1,0-.15Z"/><path class="cls-1" d="M26.05,58.2a.79.79,0,0,0-.79.79v2a3.17,3.17,0,0,0-4.37,1,3.27,3.27,0,0,0,2.67,5.09,3.18,3.18,0,0,0,1.77-.54.8.8,0,0,0,1.52-.33h0V59A.79.79,0,0,0,26.05,58.2Zm-2.49,7.27a1.66,1.66,0,0,1-1.63-1.69,1.62,1.62,0,0,1,3-1A1.69,1.69,0,0,1,23.56,65.47Z"/><path class="cls-1" d="M29.08,59.75a.8.8,0,1,0-.8-.79A.8.8,0,0,0,29.08,59.75Z"/><path class="cls-1" d="M29.08,66.94a.8.8,0,0,0,.79-.79V61.36a.8.8,0,0,0-1.59,0v4.79A.8.8,0,0,0,29.08,66.94Z"/><path class="cls-1" d="M38,63.83h0a3.32,3.32,0,0,0-.27-1.3,3.38,3.38,0,0,0-1.22-1.45,3.56,3.56,0,0,0-.88-.42,3.66,3.66,0,0,0-1-.14h0a3.32,3.32,0,0,0-1.3.26,3.25,3.25,0,0,0-1.91,2.06,3.26,3.26,0,0,0-.16,1h0a.81.81,0,0,0,.35.66.81.81,0,0,1-.35-.66,3.35,3.35,0,0,0,3.37,3.31h0A3.34,3.34,0,0,0,38,63.83Zm-1.59,0a1.78,1.78,0,0,1-3.56,0h0a1.67,1.67,0,0,1,.14-.67,1.74,1.74,0,0,1,.64-.76,1.84,1.84,0,0,1,.47-.22,1.81,1.81,0,0,1,1.23.06,1.73,1.73,0,0,1,.78.63,1.91,1.91,0,0,1,.23.45,1.7,1.7,0,0,1,.07.51h0a.79.79,0,0,0,.49.73A.79.79,0,0,1,36.38,63.83Z"/></svg>