<svg id="Capa_1" data-name="Capa 1" xmlns="http://www.w3.org/2000/svg" viewBox="0 0 202.91 280.52"><defs><style>.cls-1{fill:#fff;}</style></defs><path class="cls-1" d="M50.66,280.52h-.45c-24.76,0-37.16-13.17-43.2-24.21a60,60,0,0,1-7-23.72V75.39A75.48,75.48,0,0,1,75.39,0H160a48.39,48.39,0,0,1,20.33,5.24c9.53,4.9,21.17,15.35,22.54,37.29v.11c0,.38,1.16,38.34-42.27,43.1l-.61,0H103.49a57.82,57.82,0,0,0-31.74,9.17C57,104.58,49.51,118.69,49.51,136.89c0,16.46,8.36,32.32,22.38,42.43,13.42,9.67,29.66,12.37,44.54,7.41,13.42-4.48,24.69-15.28,29.42-28.2A34.26,34.26,0,0,0,143,128.06c-6.91-11.35-21.66-17.4-33.57-13.78-7.13,2.16-12.93,7.47-15.13,13.85s-.42,14.16,4.31,18.32,12.55,4.51,17.08.73c2.48-2.07,3.71-5.42,2.82-7.64a2.48,2.48,0,0,0-2-1.66,1.72,1.72,0,0,0-1.7.74,5.67,5.67,0,1,1-9.11-6.75A13,13,0,0,1,118,126.64a13.88,13.88,0,0,1,11.07,8.65c2.77,6.84.27,15.31-6.06,20.59-8.87,7.4-22.85,7-31.84-.93-8.15-7.18-11.25-19.73-7.53-30.51,3.37-9.76,12-17.81,22.56-21,16.89-5.13,36.9,2.92,46.54,18.72a45.72,45.72,0,0,1,3.77,40.27c-5.88,16.09-19.86,29.52-36.47,35.06-18.39,6.13-38.34,2.86-54.75-9-17-12.23-27.1-31.53-27.1-51.62,0-27.74,14.89-43.28,27.38-51.44a69.21,69.21,0,0,1,37.94-11h56.22c13.66-1.56,23.13-7.19,28.17-16.71a32.69,32.69,0,0,0,3.7-14.59c-2-31.54-30.3-31.82-31.53-31.81H75.39A64.14,64.14,0,0,0,11.33,75.39V232.16c.16,2.6,3,37,39,37h.2c1.43.05,35.7.52,38.75-39.16V216a5.67,5.67,0,1,1,11.33,0v14.67c-2,26.43-15.59,38.63-26.69,44.22A54.57,54.57,0,0,1,50.66,280.52Z"/></svg>