<svg id="Capa_1" data-name="Capa 1" xmlns="http://www.w3.org/2000/svg" xmlns:xlink="http://www.w3.org/1999/xlink" viewBox="0 0 222.91 222.65"><defs><style>.cls-1{fill:url(#Degradado_sin_nombre_5);}</style><radialGradient id="Degradado_sin_nombre_5" cx="35.6" cy="43.42" r="219.16" gradientUnits="userSpaceOnUse"><stop offset="0.18" stop-color="#00bcfd"/><stop offset="0.2" stop-color="#08b3fd"/><stop offset="0.33" stop-color="#2c85fe"/><stop offset="0.43" stop-color="#4369ff"/><stop offset="0.49" stop-color="#4b5fff"/><stop offset="0.81" stop-color="#811df0"/><stop offset="0.92" stop-color="#9604eb"/></radialGradient></defs><path class="cls-1" d="M129.83,162.51c-.05,1.18-.12,1.92-.12,2.66,0,6.06,0,12.12,0,18.18,0,2.4-.53,2.89-2.64,3.06s-2.88-1-2.91-2.86c-.11-6.2-.44-12.41-.18-18.59.16-3.94-1-6.16-4.76-7.81-5-2.19-9.7-5.16-14.51-7.83a29.31,29.31,0,0,1-3.11-2.11,2.21,2.21,0,0,1-.57-3.43c.91-1.27,2-1.85,3.56-1,6.33,3.5,12.6,7.13,19,10.41,6.2,3.16,12.51,6.17,19.43,7.5a15.67,15.67,0,0,0,11.67-2c3.41-2.14,4.79-5.45,5.15-9.31.79-8.39,1.64-16.77,2.38-25.16.19-2.21,1.11-3.63,3.27-4.27,1.74-.51,3.43-1.17,5.15-1.73,1.17-.38,1.65-1.11,1-2.2-1.48-2.51-3-5-4.59-7.44-1.88-2.93-3.84-5.8-5.73-8.73-2.52-3.9-2.9-8.07-2-12.61,4.21-21.11-7.91-39.68-28.89-44.2C118.18,40.45,105.85,40.17,93.9,45,78.2,51.31,68.2,62.73,64.34,79.25c-1.52,6.52-.5,13,1.3,19.41,2.4,8.43,5.13,16.78,7.33,25.27,2.53,9.77,5.29,19.62,4.31,29.83-.85,8.79-2.37,17.51-3.7,26.25a3,3,0,0,1-4.92,1.78,2.55,2.55,0,0,1-.5-2c.86-6.55,1.61-13.13,2.76-19.64,1.66-9.34.69-18.49-1.67-27.51-2.46-9.43-5.19-18.79-7.93-28.14-2.61-8.9-4.55-17.87-2.38-27.14,3.72-15.86,13-27.56,27.35-35.09,14.09-7.38,29-8.2,44.33-4.84,6.93,1.51,13.75,3.47,19.23,8.18a45.65,45.65,0,0,1,16.47,33.49,37.46,37.46,0,0,1-1.25,9.48,11.28,11.28,0,0,0,1.69,9c2.62,4,5.32,8,7.93,12a28.6,28.6,0,0,1,2.23,4c2.05,4.65.62,8.92-4.3,10.1-4.46,1.07-5.09,3.58-5.3,7.35-.36,6.53-1.11,13-1.73,19.56-.84,8.95-7.76,15.42-17,16-5.22.36-10.08-.94-14.87-2.75C132.57,163.42,131.34,163,129.83,162.51Z"/><path class="cls-1" d="M99,68.17c2.59.94,4-.52,5.23-3.32a16.53,16.53,0,0,1,4.29-5.53,8.48,8.48,0,0,1,12.28,1.12,34.24,34.24,0,0,1,3.77,6,2.88,2.88,0,0,0,3.32,1.93,26.84,26.84,0,0,1,7.85.53A8.57,8.57,0,0,1,142,80.17a35.56,35.56,0,0,1-3.71,7.13,2.2,2.2,0,0,0,0,2.89,35.34,35.34,0,0,1,3.86,7.54c1.93,5.88-2.24,10.39-7.71,11.19a33.11,33.11,0,0,1-6.45.24,3,3,0,0,0-3.33,2.09c-1.89,4-4.31,7.66-9.11,8.76-2.57.59-5,.23-6.76-1.68a60.64,60.64,0,0,1-5.88-8,2.17,2.17,0,0,0-2.23-1.32c-2,.11-4,.06-6,0-6.1,0-10.9-5.43-8.25-12.83a26.26,26.26,0,0,1,3.22-5.81,2.22,2.22,0,0,0,.06-3,30.84,30.84,0,0,1-2.91-5c-3.18-7.56.83-13.83,9-14.26C96.68,68.13,97.59,68.17,99,68.17Zm2.47,21.65c-1.31,4.53,1.37,7.59,6.28,10,6.7,3.27,6.62,3.61,13-.42,6.68-4.2,5.77-2.19,5.79-10.28,0-8.84,1.2-6.79-6.37-11.07-7.21-4.08-5.48-4-12.36,0C100.47,82.26,101.91,80,101.49,89.82Zm34.87-2.37c1.32-3.36,2.74-6.14,3.48-9.1a5.54,5.54,0,0,0-4.36-7,42.6,42.6,0,0,0-7.42-.72c-1.32-.08-1.36.79-1.12,1.84.52,2.23.93,4.48,1.44,6.72a3.36,3.36,0,0,0,.77,1.66C131.31,82.93,133.54,84.9,136.36,87.45ZM92.21,87c2.32-2.08,4.5-4,6.64-6a2.62,2.62,0,0,0,.68-1.27c.57-2.44,1.17-4.88,1.55-7.35.08-.48-.76-1.57-1.18-1.57a28.61,28.61,0,0,0-6.81.48c-2.61.63-4.82,2.23-5,5.22C87.89,80.53,89.82,83.81,92.21,87Zm21.27,31.23a17.79,17.79,0,0,0,3.16-.89c3.21-1.66,4.84-4.68,6.3-7.78.12-.26-.65-1.24-1.18-1.46-2.24-.9-4.54-1.67-6.84-2.41a2.85,2.85,0,0,0-1.63.08c-2.31.73-4.6,1.55-6.91,2.3-1.19.39-1.63,1.07-.9,2.18a36.2,36.2,0,0,0,3.8,5.44C110.46,116.87,112.24,117.49,113.48,118.21ZM91.94,90.75c-1.66,3-3.88,5.77-3.81,9.57.05,2.51,1,4.5,3.35,5.53,3.18,1.36,6.47,1.22,9.71.68C101.21,99.49,97.78,94.6,91.94,90.75Zm12.87-21.81,6.88,2.22c.77.26,1.66.93,2.29.74,3.1-.91,6.14-2,9.88-3.33-2.14-2.77-3.77-5.36-5.88-7.45a5.27,5.27,0,0,0-6.22-.83C108.16,62,106.68,65.38,104.81,68.94ZM136,90.64c-2.4,2.11-4.55,4-6.65,5.86a3.15,3.15,0,0,0-.83,1.42c-.6,2.35-1.13,4.73-1.7,7.09-.32,1.36.23,2,1.59,1.92a49.64,49.64,0,0,0,6.23-.44A6.23,6.23,0,0,0,140,100.2C140,96.53,138,93.69,136,90.64ZM117.23,73c0,.23,0,.45,0,.68L126,78.5c-.51-2.39-.88-4.34-1.4-6.26a1.43,1.43,0,0,0-1.19-.76C121.31,71.92,119.28,72.5,117.23,73Zm8.68,26.73-.51-.39-7.93,4.42c0,.28,0,.56,0,.84,2,.52,4,1.08,6.06,1.53.25.06.83-.35.91-.64C125,103.63,125.44,101.69,125.91,99.77Zm7.88-10.23c-1.71-2-3.23-3.8-4.8-5.65V94.05C131,92.16,132.63,90.62,133.79,89.54ZM99.13,84l-.55-.26c-1.29,1.36-2.61,2.67-3.82,4.1-.31.37-.52,1.32-.29,1.58,1.34,1.51,2.83,2.91,4.66,4.74Zm3.62,15.47-.54.34c.53,1.95,1,3.92,1.62,5.86.07.24.57.58.78.52,2-.55,3.94-1.17,5.9-1.77l-.08-.74ZM111,73.23c-2.4-.68-4.24-1.25-6.12-1.7a1.28,1.28,0,0,0-1.09.65c-.6,2-1.08,4.06-1.75,6.66,2-1.19,3.42-2,4.81-2.87C108,75.21,109.22,74.38,111,73.23Z"/><path class="cls-1" d="M0,111.09C.59,48.22,50.89-1.38,114.33,0c59.72,1.33,108.79,49.54,108.58,112.51C222.7,174,171.78,223.27,109.85,222.65,49.36,222-.56,171.35,0,111.09ZM111.22,7.27C52.82,7.7,6.8,54.19,7.49,112.75A103.72,103.72,0,0,0,113,215.35c56.24-.64,102.9-47.69,102.6-103.87C215.32,53.63,168.45,6.85,111.22,7.27Z"/></svg>