<svg id="Capa_1" data-name="Capa 1" xmlns="http://www.w3.org/2000/svg" xmlns:xlink="http://www.w3.org/1999/xlink" viewBox="0 0 222.91 222.65"><defs><style>.cls-1{fill:url(#Degradado_sin_nombre_5);}</style><radialGradient id="Degradado_sin_nombre_5" cx="31.38" cy="34.32" r="127.63" gradientUnits="userSpaceOnUse"><stop offset="0.18" stop-color="#00bcfd"/><stop offset="0.2" stop-color="#08b3fd"/><stop offset="0.33" stop-color="#2c85fe"/><stop offset="0.43" stop-color="#4369ff"/><stop offset="0.49" stop-color="#4b5fff"/><stop offset="0.81" stop-color="#811df0"/><stop offset="0.92" stop-color="#9604eb"/></radialGradient></defs><path class="cls-1" d="M0,111.09C.59,48.22,50.89-1.38,114.33,0c59.72,1.33,108.79,49.54,108.58,112.51C222.7,174,171.78,223.27,109.85,222.65,49.36,222-.56,171.35,0,111.09ZM111.22,7.27C52.82,7.7,6.8,54.19,7.49,112.75A103.72,103.72,0,0,0,113,215.35c56.24-.64,102.9-47.69,102.6-103.87C215.32,53.63,168.45,6.85,111.22,7.27Z"/><path class="cls-1" d="M116.82,169.78c-5.06-.65-10.22-.89-15.18-2-12.81-2.93-22.87,1.59-31.39,10.78-1.89,2-3.53,4.29-5.31,6.43-2.47,3-4.37,3-7.06.25q-5.33-5.52-10.6-11.08c-4.27-4.48-8.6-8.92-12.76-13.49-3.06-3.36-3-3.79.15-7,8.44-8.57,16.88-17.14,25.48-25.54a27.34,27.34,0,0,1,6.68-4.43c4.75-2.43,9.82-1.54,14.79-.8,9.67,1.45,19.29,3.34,29,4.37,5.29.56,10.74-.25,16.11-.48a21.42,21.42,0,0,1,11.93,2.57,3.39,3.39,0,0,0,3-.31c9.91-7.12,19.71-14.39,29.6-21.54a13.37,13.37,0,0,1,17.7,1.14c2.31,2.16,2.7,3.89.64,6.29-5.55,6.46-11.09,13-17,19-7.83,8-16,15.76-24.08,23.51C139.65,165.9,129,169.73,116.82,169.78ZM60,176.71c3.22-2.64,6.21-5.08,9.19-7.54,9.51-7.86,20.17-11.44,32.53-8.87,2.55.53,5.13.93,7.7,1.29,8.61,1.19,17.21,1.06,25-3.19A60,60,0,0,0,147,148.6c11-10.72,21.63-21.75,32.37-32.71a19.14,19.14,0,0,0,2.13-3.29l-.83-1.06c-2,.84-4.15,1.36-5.85,2.57Q160.36,124.4,146.11,135a6.57,6.57,0,0,0-2.61,3.58c-1,6.29-5.27,9.09-10.75,10.65-9.15,2.59-18.5,2.48-27.77,1.08-6.25-.95-12.26-1.14-18.32.88a4.06,4.06,0,0,1-3.41-1.11c-1.91-2-1.45-4,1.11-5.47,5-2.79,10.41-3.17,15.94-2.37,9.36,1.34,18.72,2.33,28.1.27a19.23,19.23,0,0,0,4.88-1.42,6.14,6.14,0,0,0,2.72-3c.2-.53-1.07-2.09-2-2.49a14.87,14.87,0,0,0-5.57-1.44c-7.43-.07-14.92.77-22.27.06-9.18-.88-18.25-2.88-27.34-4.57-5.81-1.08-10.52.53-14.62,4.76-7,7.21-14.12,14.3-21.26,21.37-1.11,1.11-1.09,1.9-.1,2.92,1.56,1.61,3.12,3.23,4.66,4.85Z"/><path class="cls-1" d="M155.85,59.49v51.34c-2.68.64-3.25-.53-3.24-2.77,0-13.81,0-27.62,0-41.42,0-4.06-.12-4.15-4.28-4-4.95.13-5,.13-4.95,5.05q.07,24.34.14,48.69a5.52,5.52,0,0,1-.08,2.12c-.26.57-1,1.27-1.54,1.25a2.09,2.09,0,0,1-1.44-1.33,11,11,0,0,1-.12-2.94q0-26.1-.07-52.18c0-3.71,0-3.74,3.67-3.77C147.76,59.46,151.59,59.49,155.85,59.49Z"/><path class="cls-1" d="M149.59,37.89c-1.36,1.9-2.25,3.3-3.29,4.58-5.82,7.17-11.7,14.29-17.51,21.47-1.45,1.79-3.11,1.85-5,1.12-5.28-2-10.59-3.94-15.83-6a4.09,4.09,0,0,0-4.65.68c-5.94,4.78-12,9.43-18,14.13-.28.22-.56.62-.85.63a23.08,23.08,0,0,1-2.62-.19c.23-.76.23-1.79.74-2.23,2.58-2.21,5.3-4.27,8-6.38,3.87-3.06,7.76-6.08,11.59-9.19a4.71,4.71,0,0,1,5.2-.83c5.49,2.19,11,4.3,16.59,6.24a3.6,3.6,0,0,0,3.18-.71c6.56-7.84,13-15.8,19.42-23.73.33-.4.6-.85,1-1.35-3.16.15-6.17.45-9.17.36-1,0-1.89-1.08-2.83-1.67.87-.5,1.72-1.41,2.6-1.43,4.66-.15,9.31-.07,14.5-.07,0,3.47,0,6.83,0,10.19a36.07,36.07,0,0,1-.1,5.1c-.1.7-1,1.27-1.56,1.9-.46-.68-1.32-1.35-1.33-2-.06-2.78.15-5.56.24-8.33A22.07,22.07,0,0,0,149.59,37.89Z"/><path class="cls-1" d="M114,119.49c-2.21.73-3,0-2.94-2.24.1-13.19.09-26.38.13-39.57,0-3.56,0-3.62-3.6-3.44-5.67.3-5.68.3-5.68,6,0,11.75,0,23.51.07,35.26,0,2.26-.56,3.28-3.33,2.27V113.4c0-12.92.1-25.84,0-38.76,0-2.38.64-3.44,3.19-3.31,3.31.17,6.64.06,10,0,1.66,0,2.45.46,2.44,2.28q-.06,22.6,0,45.21A2.67,2.67,0,0,1,114,119.49Z"/><path class="cls-1" d="M135,101.48c0,5.1,0,10.21,0,15.32,0,1.06.51,2.52-1.43,2.53S132,118,132,116.87c0-9.06,0-18.11.22-27.16.05-2.64-.62-3.66-3.45-3.47-6.79.46-6.23-1.32-6.23,6.44,0,7.35.18,14.7.28,22a6.32,6.32,0,0,1-.09,2.39,8.06,8.06,0,0,1-1.67,2c-.49-.65-1.38-1.28-1.41-2-.16-3-.08-5.91-.08-8.87,0-7.35,0-14.7,0-22,0-2.23.61-3.26,3.07-3.1a86.82,86.82,0,0,0,9.68,0c2.32-.11,2.91.87,2.86,3-.1,5.11,0,10.22,0,15.33Z"/><path class="cls-1" d="M93.65,106.42c0,2.78.09,5.56-.06,8.32,0,.74-.71,2-1.22,2.06-1.42.2-2.21-.58-2.15-2.26.17-4.47.09-9,.3-13.41.12-2.68-1-3.37-3.52-3.2-5.75.41-5.76.31-5.77,6.21,0,2.78.11,5.56,0,8.33,0,.73-.77,1.43-1.18,2.15-.62-.67-1.75-1.31-1.77-2-.16-5-.07-10-.12-15,0-2,.87-2.64,2.8-2.57,3.31.11,6.63.12,9.93,0,2.18-.1,2.85.82,2.79,2.84-.08,2.86,0,5.73,0,8.59Z"/></svg>